<svg xmlns="http://www.w3.org/2000/svg" xmlns:xlink="http://www.w3.org/1999/xlink" width="177.784" height="135.467" viewBox="0 0 177.784 135.467"><defs><style>.a{fill:url(#a);}.b{fill:#47abea;}.c{fill:#fff;}</style><linearGradient id="a" x2="0.866" y2="0.857" gradientUnits="objectBoundingBox"><stop offset="0" stop-opacity="0.278"/><stop offset="1" stop-color="#545454" stop-opacity="0"/></linearGradient></defs><g transform="translate(-55.497 -136.801)"><path class="a" d="M233.281,222.387a17.981,17.981,0,0,0-4.854-12.109c-.232-.258-.465-.491-.723-.749l-.361-.361-.181-.181-.129-.129-.284-.284-.181-.181-.129-.129-.284-.284-.181-.181-.155-.155-.361-.361-.181-.181-.129-.129-.284-.284-.181-.181-.129-.129a2.947,2.947,0,0,0-.284-.284l-.181-.181-.129-.129-.258-.258-.129-.129-.232-.232-.077-.077a22.271,22.271,0,0,0-2.272-23.107,20.567,20.567,0,0,0-2.195-2.53l-.1-.1-.1-.1-.1-.1a.685.685,0,0,0-.155-.129.684.684,0,0,1-.129-.155l-.1-.1-.1-.1-.1-.1-.155-.155a.684.684,0,0,1-.129-.155l-.1-.1-.1-.1-.1-.1a.685.685,0,0,0-.155-.129l-.155-.155-.1-.1-.1-.1-.1-.1-.1-.1-.155-.155a.684.684,0,0,1-.129-.155l-.1-.1-.1-.1-.1-.1a.685.685,0,0,0-.155-.129l-.155-.155-.1-.1-.1-.1-.1-.1a.685.685,0,0,0-.155-.129.684.684,0,0,1-.129-.155l-.1-.1-.1-.1-.1-.1-.1-.1a.685.685,0,0,0-.155-.129l-.155-.155-.1-.1-.1-.1-.1-.1a.685.685,0,0,0-.155-.129.684.684,0,0,1-.129-.155l-.1-.1-.1-.1-.1-.1A.685.685,0,0,0,213.3,174a.684.684,0,0,1-.129-.155l-.1-.1-.1-.1-.1-.1-.1-.1a.685.685,0,0,0-.155-.129.685.685,0,0,1-.129-.155l-.1-.1-.1-.1-.1-.1a.685.685,0,0,0-.155-.129.685.685,0,0,1-.129-.155l-.1-.1-.1-.1-.1-.1a.685.685,0,0,0-.155-.129.685.685,0,0,1-.129-.155l-.1-.1-.1-.1-.1-.1-.155-.155a.685.685,0,0,1-.129-.155l-.1-.1-.1-.1-.1-.1-.1-.1a.685.685,0,0,0-.155-.129.685.685,0,0,1-.129-.155l-.1-.1-.1-.1-.1-.1-.155-.155a.685.685,0,0,1-.129-.155l-.1-.1-.1-.1-.1-.1a.685.685,0,0,0-.155-.129l-.155-.155-.1-.1-.1-.1-.1-.1-.1-.1-.155-.155a.685.685,0,0,1-.129-.155l-.1-.1-.1-.1-.1-.1a.685.685,0,0,0-.155-.129l-.155-.155-.1-.1-.1-.1-.1-.1a.685.685,0,0,0-.155-.129.684.684,0,0,1-.129-.155l-.1-.1-.1-.1-.1-.1a.685.685,0,0,0-.155-.129.685.685,0,0,1-.129-.155l-.1-.1-.1-.1-.1-.1-.1-.1a.685.685,0,0,0-.155-.129.684.684,0,0,1-.129-.155l-.1-.1-.1-.1-.1-.1a.685.685,0,0,0-.155-.129.684.684,0,0,1-.129-.155l-.1-.1-.1-.1-.1-.1a.685.685,0,0,0-.155-.129.684.684,0,0,1-.129-.155l-.1-.1-.1-.1-.1-.1-.1-.1a.685.685,0,0,0-.155-.129.684.684,0,0,1-.129-.155l-.1-.1-.1-.1-.1-.1a.685.685,0,0,0-.155-.129.684.684,0,0,1-.129-.155l-.1-.1-.1-.1-.1-.1-.155-.155a.684.684,0,0,1-.129-.155l-.1-.1-.1-.1-.1-.1-.1-.1a.685.685,0,0,0-.155-.129.683.683,0,0,1-.129-.155l-.1-.1-.1-.1-.1-.1-.155-.155a.684.684,0,0,1-.129-.155l-.1-.1-.1-.1-.1-.1a.685.685,0,0,0-.155-.129l-.155-.155-.1-.1-.1-.1-.1-.1a.685.685,0,0,0-.155-.129.684.684,0,0,1-.129-.155l-.1-.1-.1-.1-.1-.1-.1-.1a.685.685,0,0,0-.155-.129l-.155-.155-.1-.1-.1-.1-.1-.1a.685.685,0,0,0-.155-.129.684.684,0,0,1-.129-.155l-.1-.1-.1-.1-.1-.1a.685.685,0,0,0-.155-.129.684.684,0,0,1-.129-.155l-.1-.1-.1-.1-.1-.1-.1-.1a.685.685,0,0,0-.155-.129.685.685,0,0,1-.129-.155l-.1-.1-.1-.1-.1-.1a.685.685,0,0,0-.155-.129.685.685,0,0,1-.129-.155l-.1-.1-.1-.1-.1-.1a.685.685,0,0,0-.155-.129.685.685,0,0,1-.129-.155l-.1-.1-.1-.1-.1-.1-.1-.1-.077-.077a.356.356,0,0,0-.1-.077l-.1-.1-.1-.1-.1-.1-.1-.1a.685.685,0,0,0-.155-.129.685.685,0,0,1-.129-.155l-.1-.1-.1-.1-.1-.1-.155-.155a.685.685,0,0,1-.129-.155l-.1-.1-.1-.1-.1-.1a.685.685,0,0,0-.155-.129l-.155-.155-.1-.1-.1-.1-.1-.1-.1-.1-.155-.155a.685.685,0,0,1-.129-.155l-.1-.1-.1-.1-.1-.1a.685.685,0,0,0-.155-.129l-.155-.155-.1-.1-.1-.1-.1-.1a.685.685,0,0,0-.155-.129.685.685,0,0,1-.129-.155l-.1-.1-.1-.1-.1-.1-.1-.1a.685.685,0,0,0-.155-.129l-.155-.155-.1-.1-.1-.1-.1-.1a.685.685,0,0,0-.155-.129.685.685,0,0,1-.129-.155l-.1-.1-.1-.1-.1-.1a.685.685,0,0,0-.155-.129.685.685,0,0,1-.129-.155l-.1-.1-.1-.1-.1-.1-.1-.1a.356.356,0,0,1-.077-.1.357.357,0,0,0-.1-.077l-.1-.1-.1-.1-.1-.1-.1-.1a22.325,22.325,0,0,0-26.567-3.873l-.1-.1-.155-.155-.1-.1-.1-.1-.1-.1-.129-.129-.155-.155-.1-.1-.1-.1-.1-.1-.1-.1-.129-.129-.155-.155-.1-.1-.1-.1-.1-.1-.129-.129-.155-.155-.1-.1-.1-.1-.1-.1-.129-.129-.155-.155-.1-.1-.1-.1-.1-.1-.1-.1c-.026-.026-.052-.077-.1-.1l-.077-.077-.1-.1-.1-.1-.1-.1-.1-.1a17.73,17.73,0,0,0-28.116,4.157,22.327,22.327,0,0,0-34.6,9.759,17.491,17.491,0,0,0-4.518-.594A17.751,17.751,0,0,0,73.6,173.023a17.435,17.435,0,0,0,.723,4.957,22.962,22.962,0,0,0-11.36,39.372c.413.439.852.878,1.291,1.291a21.562,21.562,0,0,0,1.549,1.523l.31.31.645.645a7.614,7.614,0,0,0,.645.645l.594.594c.31.31.62.62.929.9l.026.026.026.026c.284.31.594.62.9.929l.594.594c.207.207.413.439.645.645.207.232.439.439.645.645l.594.594.645.645a7.612,7.612,0,0,0,.645.645l.594.594.594.594.645.645a7.615,7.615,0,0,0,.645.645l.594.594.645.645a7.614,7.614,0,0,0,.645.645l.594.594c.207.207.413.439.645.645.207.232.439.439.645.645l.594.594.594.594.645.645a7.614,7.614,0,0,0,.645.645l.594.594.645.645a7.6,7.6,0,0,0,.645.645l.594.594.594.594c.207.207.413.439.645.645.207.232.439.439.645.645l.594.594.645.645a4.112,4.112,0,0,0,.336.336c.284.31.594.62.9.929l.645.645a7.614,7.614,0,0,0,.645.645l.594.594.594.594a22.7,22.7,0,0,0,16.394,6.971c.516,0,1.007-.026,1.523-.052l.207.207.594.594a7.916,7.916,0,0,0,.671.645c.207.207.413.439.62.645l.594.594a7.926,7.926,0,0,0,.671.645,2.945,2.945,0,0,0,.284.284c.31.336.62.645.955.955a7.923,7.923,0,0,0,.671.645c.207.207.413.439.62.645l.594.594.594.594a22.364,22.364,0,0,0,30.517,1.575l.155.155c.181.207.387.387.594.594.207.232.439.439.645.645.129.155.284.284.413.413.258.284.542.568.826.826.207.232.439.439.645.645s.413.439.645.645c.181.207.387.387.594.594.181.207.387.387.594.594a17.754,17.754,0,0,0,28.71-4.208,22.375,22.375,0,0,0,36.61-17.246,22.54,22.54,0,0,0-.671-5.473A17.382,17.382,0,0,0,233.281,222.387Z"/><g transform="translate(55.73 137.007)"><path class="b" d="M193.52,176.921a22.346,22.346,0,0,0-30.956-30.026,17.739,17.739,0,0,0-31.214.026,22.327,22.327,0,0,0-34.6,9.759,17.491,17.491,0,0,0-4.518-.594A17.751,17.751,0,0,0,74.5,173.823a17.435,17.435,0,0,0,.723,4.957,22.749,22.749,0,0,0,3.924,45.156,23.428,23.428,0,0,0,3.847-.336,22.383,22.383,0,0,0,36.507,7.8,17.738,17.738,0,0,0,32.557,2.04,22.375,22.375,0,0,0,36.61-17.246,22.541,22.541,0,0,0-.671-5.473,17.74,17.74,0,0,0,16.11-17.66A17.938,17.938,0,0,0,193.52,176.921Z" transform="translate(-56.4 -137.6)"/></g><g transform="translate(97.814 160.42)"><g transform="translate(0 0)"><path class="c" d="M261.668,258.547a9.008,9.008,0,0,0,9.01-9.036c0-3.1,1.084-5.964-1.317-7.565-1.446-.981-7.771-1.446-9.63-1.446-2.22,0-5.112,1.807-6.687,3.15-1.962,1.652-.413,3.1-.413,5.861A9.046,9.046,0,0,0,261.668,258.547Zm-6.274-9.888a4.869,4.869,0,0,1,2.788.232l2.763-1.343s-1.42,2.04-.155,1.343a15.555,15.555,0,0,1,7.565-.232,7.7,7.7,0,0,1,.1,1.084,6.6,6.6,0,1,1-13.193,0C255.291,249.356,255.342,249.02,255.394,248.658Z" transform="translate(-243.621 -237.346)"/><path class="c" d="M380.28,239.21a9.833,9.833,0,0,0-.207-1.523,10.713,10.713,0,0,0-11.308-9.4c-7,.155-8.52,5.448-8.907,8.649a9.794,9.794,0,0,0-.465,2.479c-9.114,1.6-8.107,10.818-2.53,10.973a10.717,10.717,0,0,1,2.659-8.649,10.459,10.459,0,0,0,20.5.775,13.883,13.883,0,0,1,1.936,7.875C390.737,250.312,386.425,240.295,380.28,239.21Zm-10.4,8.365a7.527,7.527,0,0,1-7.513-7.384c1.5-.542,2.608-3.124,2.608-3.124s.878.31.878,3.227c1.549.542,4.234-4.544,4.234-4.544v4c1.7.465,7.1-.155,7.1-.155l.207.181c0,.077.026.181.026.258A7.548,7.548,0,0,1,369.876,247.575Z" transform="translate(-318.214 -228.286)"/><path class="c" d="M273.256,315.5h-8.133L254.28,328.564,243.8,315.681H231.87L219.4,329.364l2.608,2.711,8.933-7.616v14.768h1.807v11.257h-1.136V351.8H236.8V339.227h1.936V351.8H243.9v-1.317h-1.136V339.227h2.195v-14.51l7.126,7.358,2.943-.723,1.6.387,8.107-9.243.465,3.666-7.539,12.909h8.675v11.257H265.2v1.291h5.189v-1.291h0V339.072h1.936v12.548h5.189v-1.291H276.38V339.072h6.713l-6.609-12.909.361-4.518,6.325,8.468,4.182-1.033L277.336,315.5Z" transform="translate(-219.4 -292.983)"/></g></g></g></svg>