<?xml version="1.0" encoding="utf-8"?>
<!-- Generator: Adobe Illustrator 22.0.1, SVG Export Plug-In . SVG Version: 6.00 Build 0)  -->
<svg version="1.1" id="Objects" xmlns="http://www.w3.org/2000/svg" xmlns:xlink="http://www.w3.org/1999/xlink" x="0px" y="0px"
	 viewBox="0 0 800 800" style="enable-background:new 0 0 800 800;" xml:space="preserve">
<style type="text/css">
	.st0{fill:#193A5E;}
	.st1{fill:#FFFFFF;}
</style>
<path d="M744.1,468.3c-0.2-18.1-7.3-34.6-18.8-46.9c-0.9-1-1.8-1.9-2.8-2.9c-0.5-0.5-0.9-0.9-1.4-1.4c-0.2-0.2-0.5-0.5-0.7-0.7
	c-0.2-0.2-0.4-0.4-0.5-0.5c-0.4-0.4-0.7-0.7-1.1-1.1c-0.2-0.2-0.5-0.5-0.7-0.7c-0.2-0.2-0.4-0.4-0.5-0.5c-0.4-0.4-0.7-0.7-1.1-1.1
	c-0.2-0.2-0.5-0.5-0.7-0.7c-0.2-0.2-0.4-0.4-0.6-0.6c-0.5-0.5-0.9-0.9-1.4-1.4c-0.2-0.2-0.5-0.5-0.7-0.7c-0.2-0.2-0.4-0.4-0.5-0.5
	c-0.4-0.4-0.7-0.7-1.1-1.1c-0.2-0.2-0.5-0.5-0.7-0.7c-0.2-0.2-0.3-0.3-0.5-0.5c-0.4-0.4-0.7-0.8-1.1-1.1c-0.2-0.2-0.5-0.5-0.7-0.7
	c-0.2-0.2-0.4-0.4-0.5-0.5c-0.3-0.3-0.7-0.7-1-1c-0.2-0.2-0.3-0.3-0.5-0.5c-0.3-0.3-0.6-0.6-0.9-0.9c-0.1-0.1-0.2-0.2-0.3-0.3
	c5.5-11.4,8.6-24.1,8.6-37.5c0-19.5-6.5-37.5-17.4-52c-2.6-3.5-5.4-6.8-8.5-9.8c-0.1-0.1-0.3-0.3-0.4-0.4c-0.1-0.1-0.3-0.3-0.4-0.4
	c-0.1-0.1-0.3-0.3-0.4-0.4c-0.2-0.2-0.4-0.4-0.6-0.5c-0.2-0.2-0.4-0.4-0.5-0.6c-0.1-0.1-0.3-0.3-0.4-0.4c-0.1-0.1-0.3-0.3-0.4-0.4
	c-0.1-0.1-0.3-0.3-0.4-0.4c-0.2-0.2-0.4-0.4-0.6-0.6c-0.2-0.2-0.4-0.4-0.5-0.6c-0.1-0.1-0.3-0.3-0.4-0.4c-0.1-0.1-0.3-0.3-0.4-0.4
	c-0.1-0.1-0.3-0.3-0.4-0.4c-0.2-0.2-0.4-0.4-0.6-0.5c-0.2-0.2-0.4-0.4-0.6-0.6c-0.1-0.1-0.3-0.3-0.4-0.4c-0.1-0.1-0.3-0.3-0.4-0.4
	c-0.1-0.1-0.3-0.3-0.4-0.4c-0.1-0.1-0.3-0.3-0.4-0.4c-0.2-0.2-0.4-0.4-0.6-0.6c-0.2-0.2-0.4-0.4-0.5-0.6c-0.1-0.1-0.3-0.3-0.4-0.4
	c-0.1-0.1-0.3-0.3-0.4-0.4c-0.1-0.1-0.3-0.3-0.4-0.4c-0.2-0.2-0.4-0.4-0.6-0.5c-0.2-0.2-0.4-0.4-0.6-0.6c-0.1-0.1-0.3-0.3-0.4-0.4
	c-0.1-0.1-0.3-0.3-0.4-0.4c-0.1-0.1-0.3-0.3-0.4-0.4c-0.2-0.2-0.4-0.4-0.6-0.5c-0.2-0.2-0.4-0.4-0.5-0.6c-0.1-0.1-0.3-0.3-0.4-0.4
	c-0.1-0.1-0.3-0.3-0.4-0.4c-0.1-0.1-0.3-0.3-0.4-0.4c-0.1-0.1-0.3-0.3-0.4-0.4c-0.2-0.2-0.4-0.4-0.6-0.5c-0.2-0.2-0.4-0.4-0.6-0.6
	c-0.1-0.1-0.3-0.3-0.4-0.4c-0.1-0.1-0.3-0.3-0.4-0.4c-0.1-0.1-0.3-0.3-0.4-0.4c-0.2-0.2-0.4-0.4-0.6-0.5c-0.2-0.2-0.4-0.4-0.5-0.6
	c-0.1-0.1-0.3-0.3-0.4-0.4c-0.1-0.1-0.3-0.3-0.4-0.4c-0.1-0.1-0.3-0.3-0.4-0.4c-0.2-0.2-0.4-0.4-0.6-0.5c-0.2-0.2-0.4-0.4-0.5-0.6
	c-0.1-0.1-0.3-0.3-0.4-0.4c-0.1-0.1-0.3-0.3-0.4-0.4c-0.1-0.1-0.3-0.3-0.4-0.4c-0.1-0.1-0.3-0.3-0.4-0.4c-0.2-0.2-0.4-0.4-0.6-0.5
	c-0.2-0.2-0.4-0.4-0.5-0.6c-0.1-0.1-0.3-0.3-0.4-0.4c-0.1-0.1-0.3-0.3-0.4-0.4c-0.1-0.1-0.3-0.3-0.4-0.4c-0.2-0.2-0.4-0.4-0.6-0.5
	c-0.2-0.2-0.4-0.4-0.5-0.6c-0.1-0.1-0.3-0.3-0.4-0.4c-0.1-0.1-0.3-0.3-0.4-0.4c-0.1-0.1-0.3-0.3-0.4-0.4c-0.2-0.2-0.4-0.4-0.6-0.5
	c-0.2-0.2-0.4-0.4-0.5-0.6c-0.1-0.1-0.3-0.3-0.4-0.4c-0.1-0.1-0.3-0.3-0.4-0.4c-0.1-0.1-0.3-0.3-0.4-0.4c-0.2-0.2-0.4-0.4-0.6-0.6
	c-0.2-0.2-0.4-0.4-0.5-0.6c-0.1-0.1-0.3-0.3-0.4-0.4c-0.1-0.1-0.3-0.3-0.4-0.4c-0.1-0.1-0.3-0.3-0.4-0.4c-0.1-0.1-0.3-0.3-0.4-0.4
	c-0.2-0.2-0.4-0.4-0.6-0.5c-0.2-0.2-0.4-0.4-0.5-0.6c-0.1-0.1-0.3-0.3-0.4-0.4c-0.1-0.1-0.3-0.3-0.4-0.4c-0.1-0.1-0.3-0.3-0.4-0.4
	c-0.2-0.2-0.4-0.4-0.6-0.6c-0.2-0.2-0.4-0.4-0.5-0.6c-0.1-0.1-0.3-0.3-0.4-0.4c-0.1-0.1-0.3-0.3-0.4-0.4c-0.1-0.1-0.3-0.3-0.4-0.4
	c-0.2-0.2-0.4-0.4-0.6-0.5c-0.2-0.2-0.4-0.4-0.6-0.6c-0.1-0.1-0.3-0.3-0.4-0.4c-0.1-0.1-0.3-0.3-0.4-0.4c-0.1-0.1-0.3-0.3-0.4-0.4
	c-0.1-0.1-0.3-0.3-0.4-0.4c-0.2-0.2-0.4-0.4-0.6-0.6c-0.2-0.2-0.4-0.4-0.5-0.6c-0.1-0.1-0.3-0.3-0.4-0.4c-0.1-0.1-0.3-0.3-0.4-0.4
	c-0.1-0.1-0.3-0.3-0.4-0.4c-0.2-0.2-0.4-0.4-0.6-0.5c-0.2-0.2-0.4-0.4-0.6-0.6c-0.1-0.1-0.3-0.3-0.4-0.4c-0.1-0.1-0.3-0.3-0.4-0.4
	c-0.1-0.1-0.3-0.3-0.4-0.4c-0.2-0.2-0.4-0.4-0.6-0.5c-0.2-0.2-0.4-0.4-0.5-0.6c-0.1-0.1-0.3-0.3-0.4-0.4c-0.1-0.1-0.3-0.3-0.4-0.4
	c-0.1-0.1-0.3-0.3-0.4-0.4c-0.2-0.2-0.4-0.4-0.6-0.5c-0.2-0.2-0.4-0.4-0.5-0.6c-0.1-0.1-0.3-0.3-0.4-0.4c-0.1-0.1-0.3-0.3-0.4-0.4
	c-0.1-0.1-0.3-0.3-0.4-0.4c-0.1-0.1-0.3-0.3-0.4-0.4c-0.2-0.2-0.4-0.4-0.6-0.5c-0.2-0.2-0.4-0.4-0.5-0.6c-0.1-0.1-0.3-0.3-0.4-0.4
	c-0.1-0.1-0.3-0.3-0.4-0.4c-0.1-0.1-0.3-0.3-0.4-0.4c-0.2-0.2-0.4-0.4-0.6-0.5c-0.2-0.2-0.4-0.4-0.5-0.6c-0.1-0.1-0.3-0.3-0.4-0.4
	c-0.1-0.1-0.3-0.3-0.4-0.4c-0.1-0.1-0.3-0.3-0.4-0.4c-0.2-0.2-0.4-0.4-0.6-0.5c-0.2-0.2-0.4-0.4-0.5-0.6c-0.1-0.1-0.3-0.3-0.4-0.4
	c-0.1-0.1-0.3-0.3-0.4-0.4c-0.1-0.1-0.3-0.3-0.4-0.4c-0.1-0.1-0.3-0.3-0.4-0.4c-0.2-0.2-0.4-0.4-0.6-0.5c-0.2-0.2-0.4-0.4-0.5-0.6
	c-0.1-0.1-0.3-0.3-0.4-0.4c-0.1-0.1-0.3-0.3-0.4-0.4c-0.1-0.1-0.3-0.3-0.4-0.4c-0.2-0.2-0.4-0.4-0.6-0.5c-0.2-0.2-0.4-0.4-0.5-0.6
	c-0.1-0.1-0.3-0.3-0.4-0.4c-0.1-0.1-0.3-0.3-0.4-0.4c-0.1-0.1-0.3-0.3-0.4-0.4c-0.2-0.2-0.4-0.4-0.6-0.6c-0.2-0.2-0.4-0.4-0.5-0.6
	c-0.1-0.1-0.3-0.3-0.4-0.4c-0.1-0.1-0.3-0.3-0.4-0.4c-0.1-0.1-0.3-0.3-0.4-0.4c-0.1-0.1-0.3-0.3-0.4-0.4c-0.2-0.2-0.4-0.4-0.6-0.5
	c-0.2-0.2-0.4-0.4-0.5-0.6c-0.1-0.1-0.3-0.3-0.4-0.4c-0.1-0.1-0.3-0.3-0.4-0.4c-0.1-0.1-0.3-0.3-0.4-0.4c-0.2-0.2-0.4-0.4-0.6-0.6
	c-0.2-0.2-0.4-0.4-0.5-0.6c-0.1-0.1-0.3-0.3-0.4-0.4c-0.1-0.1-0.3-0.3-0.4-0.4c-0.1-0.1-0.3-0.3-0.4-0.4c-0.2-0.2-0.4-0.4-0.6-0.5
	c-0.2-0.2-0.4-0.4-0.6-0.6c-0.1-0.1-0.3-0.3-0.4-0.4c-0.1-0.1-0.3-0.3-0.4-0.4c-0.1-0.1-0.3-0.3-0.4-0.4c-0.2-0.2-0.4-0.4-0.6-0.5
	c-0.2-0.2-0.4-0.4-0.5-0.6c-0.1-0.1-0.3-0.3-0.4-0.4c-0.1-0.1-0.3-0.3-0.4-0.4c-0.1-0.1-0.3-0.3-0.4-0.4c-0.1-0.1-0.3-0.3-0.4-0.4
	c-0.2-0.2-0.4-0.4-0.6-0.5c-0.2-0.2-0.4-0.4-0.6-0.6c-0.1-0.1-0.3-0.3-0.4-0.4c-0.1-0.1-0.3-0.3-0.4-0.4c-0.1-0.1-0.3-0.3-0.4-0.4
	c-0.2-0.2-0.4-0.4-0.6-0.5c-0.2-0.2-0.4-0.4-0.5-0.6c-0.1-0.1-0.3-0.3-0.4-0.4c-0.1-0.1-0.3-0.3-0.4-0.4c-0.1-0.1-0.3-0.3-0.4-0.4
	c-0.2-0.2-0.4-0.4-0.6-0.5c-0.2-0.2-0.4-0.4-0.5-0.6c-0.1-0.1-0.3-0.3-0.4-0.4c-0.1-0.1-0.3-0.3-0.4-0.4c-0.1-0.1-0.3-0.3-0.4-0.4
	c-0.1-0.1-0.3-0.3-0.4-0.4c-0.2-0.2-0.4-0.4-0.6-0.5c-0.2-0.2-0.4-0.4-0.5-0.6c-0.1-0.1-0.3-0.3-0.4-0.4c-0.1-0.1-0.3-0.3-0.4-0.4
	c-0.1-0.1-0.3-0.3-0.4-0.4c-0.2-0.2-0.4-0.4-0.6-0.5c-0.2-0.2-0.4-0.4-0.5-0.6c-0.1-0.1-0.3-0.3-0.4-0.4c-0.1-0.1-0.3-0.3-0.4-0.4
	c-0.1-0.1-0.3-0.3-0.4-0.4c-0.2-0.2-0.4-0.4-0.6-0.5c-0.2-0.2-0.4-0.4-0.5-0.6c-0.1-0.1-0.3-0.3-0.4-0.4c-0.1-0.1-0.3-0.3-0.4-0.4
	c-0.1-0.1-0.3-0.3-0.4-0.4c-0.1-0.1-0.3-0.3-0.4-0.4c-0.1-0.1-0.2-0.2-0.3-0.3c-0.1-0.1-0.2-0.2-0.4-0.3c-0.1-0.1-0.3-0.3-0.4-0.4
	c-0.1-0.1-0.3-0.3-0.4-0.4c-0.1-0.1-0.3-0.3-0.4-0.4c-0.1-0.1-0.3-0.3-0.4-0.4c-0.2-0.2-0.4-0.4-0.6-0.5c-0.2-0.2-0.4-0.4-0.5-0.6
	c-0.1-0.1-0.3-0.3-0.4-0.4c-0.1-0.1-0.3-0.3-0.4-0.4c-0.1-0.1-0.3-0.3-0.4-0.4c-0.2-0.2-0.4-0.4-0.6-0.6c-0.2-0.2-0.4-0.4-0.5-0.6
	c-0.1-0.1-0.3-0.3-0.4-0.4c-0.1-0.1-0.3-0.3-0.4-0.4c-0.1-0.1-0.3-0.3-0.4-0.4c-0.2-0.2-0.4-0.4-0.6-0.5c-0.2-0.2-0.4-0.4-0.6-0.6
	c-0.1-0.1-0.3-0.3-0.4-0.4c-0.1-0.1-0.3-0.3-0.4-0.4c-0.1-0.1-0.3-0.3-0.4-0.4c-0.1-0.1-0.3-0.3-0.4-0.4c-0.2-0.2-0.4-0.4-0.6-0.6
	c-0.2-0.2-0.4-0.4-0.5-0.6c-0.1-0.1-0.3-0.3-0.4-0.4c-0.1-0.1-0.3-0.3-0.4-0.4c-0.1-0.1-0.3-0.3-0.4-0.4c-0.2-0.2-0.4-0.4-0.6-0.5
	c-0.2-0.2-0.4-0.4-0.6-0.6c-0.1-0.1-0.3-0.3-0.4-0.4c-0.1-0.1-0.3-0.3-0.4-0.4c-0.1-0.1-0.3-0.3-0.4-0.4c-0.2-0.2-0.4-0.4-0.6-0.5
	c-0.2-0.2-0.4-0.4-0.5-0.6c-0.1-0.1-0.3-0.3-0.4-0.4c-0.1-0.1-0.3-0.3-0.4-0.4c-0.1-0.1-0.3-0.3-0.4-0.4c-0.1-0.1-0.3-0.3-0.4-0.4
	c-0.2-0.2-0.4-0.4-0.6-0.5c-0.2-0.2-0.4-0.4-0.6-0.6c-0.1-0.1-0.3-0.3-0.4-0.4c-0.1-0.1-0.3-0.3-0.4-0.4c-0.1-0.1-0.3-0.3-0.4-0.4
	c-0.2-0.2-0.4-0.4-0.6-0.5c-0.2-0.2-0.4-0.4-0.5-0.6c-0.1-0.1-0.3-0.3-0.4-0.4c-0.1-0.1-0.3-0.3-0.4-0.4c-0.1-0.1-0.3-0.3-0.4-0.4
	c-0.2-0.2-0.4-0.4-0.6-0.5c-0.2-0.2-0.4-0.4-0.5-0.6c-0.1-0.1-0.3-0.3-0.4-0.4c-0.1-0.1-0.3-0.3-0.4-0.4c-0.1-0.1-0.3-0.3-0.4-0.4
	c-0.1-0.1-0.3-0.3-0.4-0.4c-0.1-0.1-0.2-0.2-0.3-0.4c-0.1-0.1-0.2-0.2-0.4-0.3c-0.1-0.1-0.3-0.3-0.4-0.4c-0.1-0.1-0.3-0.3-0.4-0.4
	c-0.1-0.1-0.3-0.3-0.4-0.4c-0.1-0.1-0.3-0.3-0.4-0.4c-15.7-15.8-37.4-25.6-61.4-25.6c-15,0-29.2,3.8-41.5,10.6
	c-0.1-0.1-0.3-0.3-0.4-0.4c-0.2-0.2-0.4-0.4-0.6-0.6c-0.1-0.1-0.3-0.3-0.4-0.4c-0.1-0.1-0.3-0.3-0.4-0.4c-0.1-0.1-0.3-0.3-0.4-0.4
	c-0.2-0.2-0.3-0.3-0.5-0.5c-0.2-0.2-0.4-0.4-0.6-0.6c-0.1-0.1-0.3-0.3-0.4-0.4c-0.1-0.1-0.3-0.3-0.4-0.4c-0.1-0.1-0.3-0.3-0.4-0.4
	c-0.1-0.1-0.3-0.3-0.4-0.4c-0.2-0.2-0.3-0.3-0.5-0.5c-0.2-0.2-0.4-0.4-0.6-0.6c-0.1-0.1-0.3-0.3-0.4-0.4c-0.1-0.1-0.3-0.3-0.4-0.4
	c-0.1-0.1-0.3-0.3-0.4-0.4c-0.2-0.2-0.3-0.3-0.5-0.5c-0.2-0.2-0.4-0.4-0.6-0.6c-0.1-0.1-0.3-0.3-0.4-0.4c-0.1-0.1-0.3-0.3-0.4-0.4
	c-0.1-0.1-0.3-0.3-0.4-0.4c-0.2-0.2-0.3-0.3-0.5-0.5c-0.2-0.2-0.4-0.4-0.6-0.6c-0.1-0.1-0.3-0.3-0.4-0.4c-0.1-0.1-0.3-0.3-0.4-0.4
	c-0.1-0.1-0.3-0.3-0.4-0.4c-0.1-0.1-0.3-0.3-0.4-0.4c-0.1-0.1-0.2-0.3-0.4-0.4c-0.1-0.1-0.2-0.2-0.3-0.3c-0.1-0.1-0.3-0.3-0.4-0.4
	c-0.1-0.1-0.3-0.3-0.4-0.4c-0.1-0.1-0.3-0.3-0.4-0.4c-0.1-0.1-0.3-0.3-0.4-0.4c-12.4-12.4-29.5-20-48.4-20
	c-26.1,0-48.9,14.6-60.5,36.1c-14.7-11.4-33-18.2-53-18.2c-37.1,0-68.7,23.3-81,56c-5.6-1.5-11.5-2.3-17.5-2.3
	c-37.9,0-68.7,30.8-68.7,68.7c0,6.7,1,13.1,2.8,19.2c-41.4,7.2-72.9,43.3-72.9,86.8c0,18.4,5.6,35.4,15.2,49.5
	c3.9,5.9,8.5,11.4,13.7,16.2c1.6,1.7,3.3,3.4,5,5c1.9,2.1,3.9,4,6,5.9c0.4,0.4,0.8,0.8,1.2,1.2c0.8,0.8,1.7,1.7,2.5,2.5
	c0.8,0.9,1.6,1.7,2.5,2.5c0.8,0.8,1.5,1.5,2.3,2.3c1.2,1.2,2.4,2.4,3.6,3.5c0,0,0.1,0.1,0.1,0.1c0,0,0.1,0.1,0.1,0.1
	c1.1,1.2,2.3,2.4,3.5,3.6c0.8,0.8,1.5,1.5,2.3,2.3c0.8,0.8,1.6,1.7,2.5,2.5c0.8,0.9,1.7,1.7,2.5,2.5c0.8,0.8,1.5,1.5,2.3,2.3
	c0.8,0.8,1.7,1.7,2.5,2.5c0.8,0.9,1.6,1.7,2.5,2.5c0.8,0.8,1.5,1.5,2.3,2.3c0.8,0.8,1.5,1.5,2.3,2.3c0.8,0.8,1.7,1.7,2.5,2.5
	c0.8,0.9,1.6,1.7,2.5,2.5c0.8,0.8,1.5,1.5,2.3,2.3c0.8,0.8,1.7,1.7,2.5,2.5c0.8,0.9,1.6,1.7,2.5,2.5c0.8,0.8,1.5,1.5,2.3,2.3
	c0.8,0.8,1.6,1.7,2.5,2.5c0.8,0.9,1.7,1.7,2.5,2.5c0.8,0.8,1.5,1.5,2.3,2.3c0.8,0.8,1.5,1.5,2.3,2.3c0.8,0.8,1.7,1.7,2.5,2.5
	c0.8,0.9,1.6,1.7,2.5,2.5c0.8,0.8,1.5,1.5,2.3,2.3c0.8,0.8,1.7,1.7,2.5,2.5c0.8,0.9,1.6,1.7,2.5,2.5c0.8,0.8,1.5,1.5,2.3,2.3
	c0.8,0.8,1.5,1.5,2.3,2.3c0.8,0.8,1.6,1.7,2.5,2.5c0.8,0.9,1.7,1.7,2.5,2.5c0.8,0.8,1.5,1.5,2.3,2.3c0.8,0.8,1.7,1.7,2.5,2.5
	c0.4,0.4,0.8,0.9,1.3,1.3c1.1,1.2,2.3,2.4,3.5,3.6c0.8,0.8,1.7,1.7,2.5,2.5c0.8,0.9,1.6,1.7,2.5,2.5c0.8,0.8,1.5,1.5,2.3,2.3
	c0.8,0.8,1.5,1.5,2.3,2.3c16,16.6,38.5,27,63.5,27c2,0,3.9-0.1,5.9-0.2c0.3,0.3,0.5,0.5,0.8,0.8c0.8,0.8,1.5,1.5,2.3,2.3
	c0.8,0.9,1.7,1.7,2.6,2.5c0.8,0.8,1.6,1.7,2.4,2.5c0.8,0.8,1.5,1.5,2.3,2.3c0.8,0.9,1.7,1.7,2.6,2.5c0.4,0.4,0.7,0.8,1.1,1.1
	c1.2,1.3,2.4,2.5,3.7,3.7c0.8,0.9,1.7,1.7,2.6,2.5c0.8,0.8,1.6,1.7,2.4,2.5c0.8,0.8,1.5,1.5,2.3,2.3c0.8,0.8,1.5,1.5,2.3,2.3
	c15.8,16.4,37.9,26.5,62.4,26.5c21.2,0,40.7-7.7,55.8-20.4c0.2,0.2,0.4,0.4,0.6,0.6c0.7,0.8,1.5,1.5,2.3,2.3
	c0.8,0.9,1.7,1.7,2.5,2.5c0.5,0.6,1.1,1.1,1.6,1.6c1,1.1,2.1,2.2,3.2,3.2c0.8,0.9,1.7,1.7,2.5,2.5c0.8,0.8,1.6,1.7,2.5,2.5
	c0.7,0.8,1.5,1.5,2.3,2.3c0.7,0.8,1.5,1.5,2.3,2.3c12.5,13.2,30.3,21.4,49.9,21.4c26.8,0,50-15.4,61.3-37.7
	c15,12.4,34.2,19.8,55.2,19.8c47.8,0,86.6-38.8,86.6-86.6c0-7.3-0.9-14.4-2.6-21.2C716.7,533.5,744.1,504.1,744.1,468.3z"/>
<g>
	<g>
		<path class="st0" d="M587.5,289.9c6.9-12.4,10.8-26.7,10.8-41.8c0-47.8-38.8-86.6-86.6-86.6c-16.1,0-31.2,4.4-44.1,12.1
			c-11.6-21.4-34.3-36-60.4-36s-48.9,14.6-60.5,36.1c-14.7-11.4-33-18.2-53-18.2c-37.1,0-68.7,23.3-81,56
			c-5.6-1.5-11.5-2.3-17.5-2.3c-37.9,0-68.7,30.8-68.7,68.7c0,6.7,1,13.1,2.8,19.2c-41.4,7.2-72.9,43.3-72.9,86.8
			c0,48.7,39.4,88.1,88.1,88.1c5.1,0,10.1-0.5,14.9-1.3c12.6,32.2,44,55,80.7,55c23.6,0,45.1-9.5,60.7-24.8
			c9.4,26.7,34.9,45.7,64.8,45.7c26.8,0,50-15.4,61.3-37.8c15,12.4,34.2,19.8,55.2,19.8c47.8,0,86.6-38.8,86.6-86.6
			c0-7.3-0.9-14.4-2.6-21.2c35-3.2,62.4-32.6,62.4-68.4C628.2,324.7,611.5,300.7,587.5,289.9z"/>
	</g>
</g>
<g>
	<g>
		<path class="st1" d="M422.2,302.8c-10.7,0-20.4,3.9-28.1,10.1c-3.3-2.6-5.7-5.5-6.8-9c20.4-7.8,34.9-27.4,34.9-50.5
			c0-29.9-24.3-54.2-54.2-54.2c-29.9,0-54.2,24.3-54.2,54.2c0,22.9,14.2,42.3,34.2,50.3c-9.8,17.7-72.1,20.7-72.1,61.2
			c0,22.9,8.4,48.5,22.2,69.8c-2,11.3-0.3,22,5.8,30.5c7.4,10.4,20.3,16.2,36,16.2l0,0c5.6,0,11.4-0.8,17.4-2.2c3.5,0.6,7,1,10.6,1
			c48.5,0,88.1-58.5,91.8-108c4.7-7.1,7.4-15.5,7.4-24.5C467.2,323,447,302.8,422.2,302.8z M422.9,381.1
			c11.8,17.7-2.4,48.8-32.2,70.1c-30.1,21.5-64.8,24.8-77.3,7.2c-12.5-17.5,1.7-49.2,31.9-70.8c17.5-12.5,36.3-18.6,51.6-18.3
			c-5-5.8-8.1-13.3-8.1-21.6c0-18.4,14.9-33.4,33.4-33.4s33.4,14.9,33.4,33.4C455.6,366,441,380.7,422.9,381.1z"/>
		<path class="st1" d="M377.3,403c0,0-3.5-19.5-14.6-13.9c-11.1,5.7-3.5,28.2,11.6,42.3c26.3-12.6,36.9-27.8,27.2-36.2
			S377.3,403,377.3,403z"/>
	</g>
</g>
</svg>
