<?xml version="1.0" encoding="utf-8"?>
<!-- Generator: Adobe Illustrator 22.0.1, SVG Export Plug-In . SVG Version: 6.00 Build 0)  -->
<svg version="1.1" id="Objects" xmlns="http://www.w3.org/2000/svg" xmlns:xlink="http://www.w3.org/1999/xlink" x="0px" y="0px"
	 viewBox="0 0 800 800" style="enable-background:new 0 0 800 800;" xml:space="preserve">
<style type="text/css">
	.st0{fill:#193A5E;}
	.st1{fill:#FFFFFF;}
</style>
<path d="M744.1,468.3c-0.2-18.1-7.3-34.6-18.8-46.9c-0.9-1-1.8-1.9-2.8-2.9c-0.5-0.5-0.9-0.9-1.4-1.4c-0.2-0.2-0.5-0.5-0.7-0.7
	c-0.2-0.2-0.4-0.4-0.5-0.5c-0.4-0.4-0.7-0.7-1.1-1.1c-0.2-0.2-0.5-0.5-0.7-0.7c-0.2-0.2-0.4-0.4-0.5-0.5c-0.4-0.4-0.7-0.7-1.1-1.1
	c-0.2-0.2-0.5-0.5-0.7-0.7c-0.2-0.2-0.4-0.4-0.6-0.6c-0.5-0.5-0.9-0.9-1.4-1.4c-0.2-0.2-0.5-0.5-0.7-0.7c-0.2-0.2-0.4-0.4-0.5-0.5
	c-0.4-0.4-0.7-0.7-1.1-1.1c-0.2-0.2-0.5-0.5-0.7-0.7c-0.2-0.2-0.3-0.3-0.5-0.5c-0.4-0.4-0.7-0.8-1.1-1.1c-0.2-0.2-0.5-0.5-0.7-0.7
	c-0.2-0.2-0.4-0.4-0.5-0.5c-0.3-0.3-0.7-0.7-1-1c-0.2-0.2-0.3-0.3-0.5-0.5c-0.3-0.3-0.6-0.6-0.9-0.9c-0.1-0.1-0.2-0.2-0.3-0.3
	c5.5-11.4,8.6-24.1,8.6-37.5c0-19.5-6.5-37.5-17.4-52c-2.6-3.5-5.4-6.8-8.5-9.8c-0.1-0.1-0.3-0.3-0.4-0.4c-0.1-0.1-0.3-0.3-0.4-0.4
	c-0.1-0.1-0.3-0.3-0.4-0.4c-0.2-0.2-0.4-0.4-0.6-0.5c-0.2-0.2-0.4-0.4-0.5-0.6c-0.1-0.1-0.3-0.3-0.4-0.4c-0.1-0.1-0.3-0.3-0.4-0.4
	c-0.1-0.1-0.3-0.3-0.4-0.4c-0.2-0.2-0.4-0.4-0.6-0.6c-0.2-0.2-0.4-0.4-0.5-0.6c-0.1-0.1-0.3-0.3-0.4-0.4c-0.1-0.1-0.3-0.3-0.4-0.4
	c-0.1-0.1-0.3-0.3-0.4-0.4c-0.2-0.2-0.4-0.4-0.6-0.5c-0.2-0.2-0.4-0.4-0.6-0.6c-0.1-0.1-0.3-0.3-0.4-0.4c-0.1-0.1-0.3-0.3-0.4-0.4
	c-0.1-0.1-0.3-0.3-0.4-0.4c-0.1-0.1-0.3-0.3-0.4-0.4c-0.2-0.2-0.4-0.4-0.6-0.6c-0.2-0.2-0.4-0.4-0.5-0.6c-0.1-0.1-0.3-0.3-0.4-0.4
	c-0.1-0.1-0.3-0.3-0.4-0.4c-0.1-0.1-0.3-0.3-0.4-0.4c-0.2-0.2-0.4-0.4-0.6-0.5c-0.2-0.2-0.4-0.4-0.6-0.6c-0.1-0.1-0.3-0.3-0.4-0.4
	c-0.1-0.1-0.3-0.3-0.4-0.4c-0.1-0.1-0.3-0.3-0.4-0.4c-0.2-0.2-0.4-0.4-0.6-0.5c-0.2-0.2-0.4-0.4-0.5-0.6c-0.1-0.1-0.3-0.3-0.4-0.4
	c-0.1-0.1-0.3-0.3-0.4-0.4c-0.1-0.1-0.3-0.3-0.4-0.4c-0.1-0.1-0.3-0.3-0.4-0.4c-0.2-0.2-0.4-0.4-0.6-0.5c-0.2-0.2-0.4-0.4-0.6-0.6
	c-0.1-0.1-0.3-0.3-0.4-0.4c-0.1-0.1-0.3-0.3-0.4-0.4c-0.1-0.1-0.3-0.3-0.4-0.4c-0.2-0.2-0.4-0.4-0.6-0.5c-0.2-0.2-0.4-0.4-0.5-0.6
	c-0.1-0.1-0.3-0.3-0.4-0.4c-0.1-0.1-0.3-0.3-0.4-0.4c-0.1-0.1-0.3-0.3-0.4-0.4c-0.2-0.2-0.4-0.4-0.6-0.5c-0.2-0.2-0.4-0.4-0.5-0.6
	c-0.1-0.1-0.3-0.3-0.4-0.4c-0.1-0.1-0.3-0.3-0.4-0.4c-0.1-0.1-0.3-0.3-0.4-0.4c-0.1-0.1-0.3-0.3-0.4-0.4c-0.2-0.2-0.4-0.4-0.6-0.5
	c-0.2-0.2-0.4-0.4-0.5-0.6c-0.1-0.1-0.3-0.3-0.4-0.4c-0.1-0.1-0.3-0.3-0.4-0.4c-0.1-0.1-0.3-0.3-0.4-0.4c-0.2-0.2-0.4-0.4-0.6-0.5
	c-0.2-0.2-0.4-0.4-0.5-0.6c-0.1-0.1-0.3-0.3-0.4-0.4c-0.1-0.1-0.3-0.3-0.4-0.4c-0.1-0.1-0.3-0.3-0.4-0.4c-0.2-0.2-0.4-0.4-0.6-0.5
	c-0.2-0.2-0.4-0.4-0.5-0.6c-0.1-0.1-0.3-0.3-0.4-0.4c-0.1-0.1-0.3-0.3-0.4-0.4c-0.1-0.1-0.3-0.3-0.4-0.4c-0.2-0.2-0.4-0.4-0.6-0.6
	c-0.2-0.2-0.4-0.4-0.5-0.6c-0.1-0.1-0.3-0.3-0.4-0.4c-0.1-0.1-0.3-0.3-0.4-0.4c-0.1-0.1-0.3-0.3-0.4-0.4c-0.1-0.1-0.3-0.3-0.4-0.4
	c-0.2-0.2-0.4-0.4-0.6-0.5c-0.2-0.2-0.4-0.4-0.5-0.6c-0.1-0.1-0.3-0.3-0.4-0.4c-0.1-0.1-0.3-0.3-0.4-0.4c-0.1-0.1-0.3-0.3-0.4-0.4
	c-0.2-0.2-0.4-0.4-0.6-0.6c-0.2-0.2-0.4-0.4-0.5-0.6c-0.1-0.1-0.3-0.3-0.4-0.4c-0.1-0.1-0.3-0.3-0.4-0.4c-0.1-0.1-0.3-0.3-0.4-0.4
	c-0.2-0.2-0.4-0.4-0.6-0.5c-0.2-0.2-0.4-0.4-0.6-0.6c-0.1-0.1-0.3-0.3-0.4-0.4c-0.1-0.1-0.3-0.3-0.4-0.4c-0.1-0.1-0.3-0.3-0.4-0.4
	c-0.1-0.1-0.3-0.3-0.4-0.4c-0.2-0.2-0.4-0.4-0.6-0.6c-0.2-0.2-0.4-0.4-0.5-0.6c-0.1-0.1-0.3-0.3-0.4-0.4c-0.1-0.1-0.3-0.3-0.4-0.4
	c-0.1-0.1-0.3-0.3-0.4-0.4c-0.2-0.2-0.4-0.4-0.6-0.5c-0.2-0.2-0.4-0.4-0.6-0.6c-0.1-0.1-0.3-0.3-0.4-0.4c-0.1-0.1-0.3-0.3-0.4-0.4
	c-0.1-0.1-0.3-0.3-0.4-0.4c-0.2-0.2-0.4-0.4-0.6-0.5c-0.2-0.2-0.4-0.4-0.5-0.6c-0.1-0.1-0.3-0.3-0.4-0.4c-0.1-0.1-0.3-0.3-0.4-0.4
	c-0.1-0.1-0.3-0.3-0.4-0.4c-0.2-0.2-0.4-0.4-0.6-0.5c-0.2-0.2-0.4-0.4-0.5-0.6c-0.1-0.1-0.3-0.3-0.4-0.4c-0.1-0.1-0.3-0.3-0.4-0.4
	c-0.1-0.1-0.3-0.3-0.4-0.4c-0.1-0.1-0.3-0.3-0.4-0.4c-0.2-0.2-0.4-0.4-0.6-0.5c-0.2-0.2-0.4-0.4-0.5-0.6c-0.1-0.1-0.3-0.3-0.4-0.4
	c-0.1-0.1-0.3-0.3-0.4-0.4c-0.1-0.1-0.3-0.3-0.4-0.4c-0.2-0.2-0.4-0.4-0.6-0.5c-0.2-0.2-0.4-0.4-0.5-0.6c-0.1-0.1-0.3-0.3-0.4-0.4
	c-0.1-0.1-0.3-0.3-0.4-0.4c-0.1-0.1-0.3-0.3-0.4-0.4c-0.2-0.2-0.4-0.4-0.6-0.5c-0.2-0.2-0.4-0.4-0.5-0.6c-0.1-0.1-0.3-0.3-0.4-0.4
	c-0.1-0.1-0.3-0.3-0.4-0.4c-0.1-0.1-0.3-0.3-0.4-0.4c-0.1-0.1-0.3-0.3-0.4-0.4c-0.2-0.2-0.4-0.4-0.6-0.5c-0.2-0.2-0.4-0.4-0.5-0.6
	c-0.1-0.1-0.3-0.3-0.4-0.4c-0.1-0.1-0.3-0.3-0.4-0.4c-0.1-0.1-0.3-0.3-0.4-0.4c-0.2-0.2-0.4-0.4-0.6-0.5c-0.2-0.2-0.4-0.4-0.5-0.6
	c-0.1-0.1-0.3-0.3-0.4-0.4c-0.1-0.1-0.3-0.3-0.4-0.4c-0.1-0.1-0.3-0.3-0.4-0.4c-0.2-0.2-0.4-0.4-0.6-0.6c-0.2-0.2-0.4-0.4-0.5-0.6
	c-0.1-0.1-0.3-0.3-0.4-0.4c-0.1-0.1-0.3-0.3-0.4-0.4c-0.1-0.1-0.3-0.3-0.4-0.4c-0.1-0.1-0.3-0.3-0.4-0.4c-0.2-0.2-0.4-0.4-0.6-0.5
	c-0.2-0.2-0.4-0.4-0.5-0.6c-0.1-0.1-0.3-0.3-0.4-0.4c-0.1-0.1-0.3-0.3-0.4-0.4c-0.1-0.1-0.3-0.3-0.4-0.4c-0.2-0.2-0.4-0.4-0.6-0.6
	c-0.2-0.2-0.4-0.4-0.5-0.6c-0.1-0.1-0.3-0.3-0.4-0.4c-0.1-0.1-0.3-0.3-0.4-0.4c-0.1-0.1-0.3-0.3-0.4-0.4c-0.2-0.2-0.4-0.4-0.6-0.5
	c-0.2-0.2-0.4-0.4-0.6-0.6c-0.1-0.1-0.3-0.3-0.4-0.4c-0.1-0.1-0.3-0.3-0.4-0.4c-0.1-0.1-0.3-0.3-0.4-0.4c-0.2-0.2-0.4-0.4-0.6-0.5
	c-0.2-0.2-0.4-0.4-0.5-0.6c-0.1-0.1-0.3-0.3-0.4-0.4c-0.1-0.1-0.3-0.3-0.4-0.4c-0.1-0.1-0.3-0.3-0.4-0.4c-0.1-0.1-0.3-0.3-0.4-0.4
	c-0.2-0.2-0.4-0.4-0.6-0.5c-0.2-0.2-0.4-0.4-0.6-0.6c-0.1-0.1-0.3-0.3-0.4-0.4c-0.1-0.1-0.3-0.3-0.4-0.4c-0.1-0.1-0.3-0.3-0.4-0.4
	c-0.2-0.2-0.4-0.4-0.6-0.5c-0.2-0.2-0.4-0.4-0.5-0.6c-0.1-0.1-0.3-0.3-0.4-0.4c-0.1-0.1-0.3-0.3-0.4-0.4c-0.1-0.1-0.3-0.3-0.4-0.4
	c-0.2-0.2-0.4-0.4-0.6-0.5c-0.2-0.2-0.4-0.4-0.5-0.6c-0.1-0.1-0.3-0.3-0.4-0.4c-0.1-0.1-0.3-0.3-0.4-0.4c-0.1-0.1-0.3-0.3-0.4-0.4
	c-0.1-0.1-0.3-0.3-0.4-0.4c-0.2-0.2-0.4-0.4-0.6-0.5c-0.2-0.2-0.4-0.4-0.5-0.6c-0.1-0.1-0.3-0.3-0.4-0.4c-0.1-0.1-0.3-0.3-0.4-0.4
	c-0.1-0.1-0.3-0.3-0.4-0.4c-0.2-0.2-0.4-0.4-0.6-0.5c-0.2-0.2-0.4-0.4-0.5-0.6c-0.1-0.1-0.3-0.3-0.4-0.4c-0.1-0.1-0.3-0.3-0.4-0.4
	c-0.1-0.1-0.3-0.3-0.4-0.4c-0.2-0.2-0.4-0.4-0.6-0.5c-0.2-0.2-0.4-0.4-0.5-0.6c-0.1-0.1-0.3-0.3-0.4-0.4c-0.1-0.1-0.3-0.3-0.4-0.4
	c-0.1-0.1-0.3-0.3-0.4-0.4c-0.1-0.1-0.3-0.3-0.4-0.4c-0.1-0.1-0.2-0.2-0.3-0.3c-0.1-0.1-0.2-0.2-0.4-0.3c-0.1-0.1-0.3-0.3-0.4-0.4
	c-0.1-0.1-0.3-0.3-0.4-0.4c-0.1-0.1-0.3-0.3-0.4-0.4c-0.1-0.1-0.3-0.3-0.4-0.4c-0.2-0.2-0.4-0.4-0.6-0.5c-0.2-0.2-0.4-0.4-0.5-0.6
	c-0.1-0.1-0.3-0.3-0.4-0.4c-0.1-0.1-0.3-0.3-0.4-0.4c-0.1-0.1-0.3-0.3-0.4-0.4c-0.2-0.2-0.4-0.4-0.6-0.6c-0.2-0.2-0.4-0.4-0.5-0.6
	c-0.1-0.1-0.3-0.3-0.4-0.4c-0.1-0.1-0.3-0.3-0.4-0.4c-0.1-0.1-0.3-0.3-0.4-0.4c-0.2-0.2-0.4-0.4-0.6-0.5c-0.2-0.2-0.4-0.4-0.6-0.6
	c-0.1-0.1-0.3-0.3-0.4-0.4c-0.1-0.1-0.3-0.3-0.4-0.4c-0.1-0.1-0.3-0.3-0.4-0.4c-0.1-0.1-0.3-0.3-0.4-0.4c-0.2-0.2-0.4-0.4-0.6-0.6
	c-0.2-0.2-0.4-0.4-0.5-0.6c-0.1-0.1-0.3-0.3-0.4-0.4c-0.1-0.1-0.3-0.3-0.4-0.4c-0.1-0.1-0.3-0.3-0.4-0.4c-0.2-0.2-0.4-0.4-0.6-0.5
	c-0.2-0.2-0.4-0.4-0.6-0.6c-0.1-0.1-0.3-0.3-0.4-0.4c-0.1-0.1-0.3-0.3-0.4-0.4c-0.1-0.1-0.3-0.3-0.4-0.4c-0.2-0.2-0.4-0.4-0.6-0.5
	c-0.2-0.2-0.4-0.4-0.5-0.6c-0.1-0.1-0.3-0.3-0.4-0.4c-0.1-0.1-0.3-0.3-0.4-0.4c-0.1-0.1-0.3-0.3-0.4-0.4c-0.1-0.1-0.3-0.3-0.4-0.4
	c-0.2-0.2-0.4-0.4-0.6-0.5c-0.2-0.2-0.4-0.4-0.6-0.6c-0.1-0.1-0.3-0.3-0.4-0.4c-0.1-0.1-0.3-0.3-0.4-0.4c-0.1-0.1-0.3-0.3-0.4-0.4
	c-0.2-0.2-0.4-0.4-0.6-0.5c-0.2-0.2-0.4-0.4-0.5-0.6c-0.1-0.1-0.3-0.3-0.4-0.4c-0.1-0.1-0.3-0.3-0.4-0.4c-0.1-0.1-0.3-0.3-0.4-0.4
	c-0.2-0.2-0.4-0.4-0.6-0.5c-0.2-0.2-0.4-0.4-0.5-0.6c-0.1-0.1-0.3-0.3-0.4-0.4c-0.1-0.1-0.3-0.3-0.4-0.4c-0.1-0.1-0.3-0.3-0.4-0.4
	c-0.1-0.1-0.3-0.3-0.4-0.4c-0.1-0.1-0.2-0.2-0.3-0.4c-0.1-0.1-0.2-0.2-0.4-0.3c-0.1-0.1-0.3-0.3-0.4-0.4c-0.1-0.1-0.3-0.3-0.4-0.4
	c-0.1-0.1-0.3-0.3-0.4-0.4c-0.1-0.1-0.3-0.3-0.4-0.4c-15.7-15.8-37.4-25.6-61.4-25.6c-15,0-29.2,3.8-41.5,10.6
	c-0.1-0.1-0.3-0.3-0.4-0.4c-0.2-0.2-0.4-0.4-0.6-0.6c-0.1-0.1-0.3-0.3-0.4-0.4c-0.1-0.1-0.3-0.3-0.4-0.4c-0.1-0.1-0.3-0.3-0.4-0.4
	c-0.2-0.2-0.3-0.3-0.5-0.5c-0.2-0.2-0.4-0.4-0.6-0.6c-0.1-0.1-0.3-0.3-0.4-0.4c-0.1-0.1-0.3-0.3-0.4-0.4c-0.1-0.1-0.3-0.3-0.4-0.4
	c-0.1-0.1-0.3-0.3-0.4-0.4c-0.2-0.2-0.3-0.3-0.5-0.5c-0.2-0.2-0.4-0.4-0.6-0.6c-0.1-0.1-0.3-0.3-0.4-0.4c-0.1-0.1-0.3-0.3-0.4-0.4
	c-0.1-0.1-0.3-0.3-0.4-0.4c-0.2-0.2-0.3-0.3-0.5-0.5c-0.2-0.2-0.4-0.4-0.6-0.6c-0.1-0.1-0.3-0.3-0.4-0.4c-0.1-0.1-0.3-0.3-0.4-0.4
	c-0.1-0.1-0.3-0.3-0.4-0.4c-0.2-0.2-0.3-0.3-0.5-0.5c-0.2-0.2-0.4-0.4-0.6-0.6c-0.1-0.1-0.3-0.3-0.4-0.4c-0.1-0.1-0.3-0.3-0.4-0.4
	c-0.1-0.1-0.3-0.3-0.4-0.4c-0.1-0.1-0.3-0.3-0.4-0.4c-0.1-0.1-0.2-0.3-0.4-0.4c-0.1-0.1-0.2-0.2-0.3-0.3c-0.1-0.1-0.3-0.3-0.4-0.4
	c-0.1-0.1-0.3-0.3-0.4-0.4c-0.1-0.1-0.3-0.3-0.4-0.4c-0.1-0.1-0.3-0.3-0.4-0.4c-12.4-12.4-29.5-20-48.4-20
	c-26.1,0-48.9,14.6-60.5,36.1c-14.7-11.4-33-18.2-53-18.2c-37.1,0-68.7,23.3-81,56c-5.6-1.5-11.5-2.3-17.5-2.3
	c-37.9,0-68.7,30.8-68.7,68.7c0,6.7,1,13.1,2.8,19.2c-41.4,7.2-72.9,43.3-72.9,86.8c0,18.4,5.6,35.4,15.2,49.5
	c3.9,5.9,8.5,11.4,13.7,16.2c1.6,1.7,3.3,3.4,5,5c1.9,2.1,3.9,4,6,5.9c0.4,0.4,0.8,0.8,1.2,1.2c0.8,0.8,1.7,1.7,2.5,2.5
	c0.8,0.9,1.6,1.7,2.5,2.5c0.8,0.8,1.5,1.5,2.3,2.3c1.2,1.2,2.4,2.4,3.6,3.5c0,0,0.1,0.1,0.1,0.1c0,0,0.1,0.1,0.1,0.1
	c1.1,1.2,2.3,2.4,3.5,3.6c0.8,0.8,1.5,1.5,2.3,2.3c0.8,0.8,1.6,1.7,2.5,2.5c0.8,0.9,1.7,1.7,2.5,2.5c0.8,0.8,1.5,1.5,2.3,2.3
	c0.8,0.8,1.7,1.7,2.5,2.5c0.8,0.9,1.6,1.7,2.5,2.5c0.8,0.8,1.5,1.5,2.3,2.3c0.8,0.8,1.5,1.5,2.3,2.3c0.8,0.8,1.7,1.7,2.5,2.5
	c0.8,0.9,1.6,1.7,2.5,2.5c0.8,0.8,1.5,1.5,2.3,2.3c0.8,0.8,1.7,1.7,2.5,2.5c0.8,0.9,1.6,1.7,2.5,2.5c0.8,0.8,1.5,1.5,2.3,2.3
	c0.8,0.8,1.6,1.7,2.5,2.5c0.8,0.9,1.7,1.7,2.5,2.5c0.8,0.8,1.5,1.5,2.3,2.3c0.8,0.8,1.5,1.5,2.3,2.3c0.8,0.8,1.7,1.7,2.5,2.5
	c0.8,0.9,1.6,1.7,2.5,2.5c0.8,0.8,1.5,1.5,2.3,2.3c0.8,0.8,1.7,1.7,2.5,2.5c0.8,0.9,1.6,1.7,2.5,2.5c0.8,0.8,1.5,1.5,2.3,2.3
	c0.8,0.8,1.5,1.5,2.3,2.3c0.8,0.8,1.6,1.7,2.5,2.5c0.8,0.9,1.7,1.7,2.5,2.5c0.8,0.8,1.5,1.5,2.3,2.3c0.8,0.8,1.7,1.7,2.5,2.5
	c0.4,0.4,0.8,0.9,1.3,1.3c1.1,1.2,2.3,2.4,3.5,3.6c0.8,0.8,1.7,1.7,2.5,2.5c0.8,0.9,1.6,1.7,2.5,2.5c0.8,0.8,1.5,1.5,2.3,2.3
	c0.8,0.8,1.5,1.5,2.3,2.3c16,16.6,38.5,27,63.5,27c2,0,3.9-0.1,5.9-0.2c0.3,0.3,0.5,0.5,0.8,0.8c0.8,0.8,1.5,1.5,2.3,2.3
	c0.8,0.9,1.7,1.7,2.6,2.5c0.8,0.8,1.6,1.7,2.4,2.5c0.8,0.8,1.5,1.5,2.3,2.3c0.8,0.9,1.7,1.7,2.6,2.5c0.4,0.4,0.7,0.8,1.1,1.1
	c1.2,1.3,2.4,2.5,3.7,3.7c0.8,0.9,1.7,1.7,2.6,2.5c0.8,0.8,1.6,1.7,2.4,2.5c0.8,0.8,1.5,1.5,2.3,2.3c0.8,0.8,1.5,1.5,2.3,2.3
	c15.8,16.4,37.9,26.5,62.4,26.5c21.2,0,40.7-7.7,55.8-20.4c0.2,0.2,0.4,0.4,0.6,0.6c0.7,0.8,1.5,1.5,2.3,2.3
	c0.8,0.9,1.7,1.7,2.5,2.5c0.5,0.6,1.1,1.1,1.6,1.6c1,1.1,2.1,2.2,3.2,3.2c0.8,0.9,1.7,1.7,2.5,2.5c0.8,0.8,1.6,1.7,2.5,2.5
	c0.7,0.8,1.5,1.5,2.3,2.3c0.7,0.8,1.5,1.5,2.3,2.3c12.5,13.2,30.3,21.4,49.9,21.4c26.8,0,50-15.4,61.3-37.7
	c15,12.4,34.2,19.8,55.2,19.8c47.8,0,86.6-38.8,86.6-86.6c0-7.3-0.9-14.4-2.6-21.2C716.7,533.5,744.1,504.1,744.1,468.3z"/>
<g>
	<g>
		<path class="st0" d="M587.5,289.9c6.9-12.4,10.8-26.7,10.8-41.8c0-47.8-38.8-86.6-86.6-86.6c-16.1,0-31.2,4.4-44.1,12.1
			c-11.6-21.4-34.3-36-60.4-36s-48.9,14.6-60.5,36.1c-14.7-11.4-33-18.2-53-18.2c-37.1,0-68.7,23.3-81,56
			c-5.6-1.5-11.5-2.3-17.5-2.3c-37.9,0-68.7,30.8-68.7,68.7c0,6.7,1,13.1,2.8,19.2c-41.4,7.2-72.9,43.3-72.9,86.8
			c0,48.7,39.4,88.1,88.1,88.1c5.1,0,10.1-0.5,14.9-1.3c12.6,32.2,44,55,80.7,55c23.6,0,45.1-9.5,60.7-24.8
			c9.4,26.7,34.9,45.7,64.8,45.7c26.8,0,50-15.4,61.3-37.8c15,12.4,34.2,19.8,55.2,19.8c47.8,0,86.6-38.8,86.6-86.6
			c0-7.3-0.9-14.4-2.6-21.2c35-3.2,62.4-32.6,62.4-68.4C628.2,324.7,611.5,300.7,587.5,289.9z"/>
	</g>
</g>
<g>
	<g id="icons_20_">
		<path class="st1" d="M488.2,323.7c-4.2-6.4-12.8-8.2-19.2-4l-50.3,33.1c-2.1,1.4-5,0.8-6.4-1.3c-1.4-2.1-0.8-5,1.3-6.4l73.5-48.3
			c6.4-4.2,8.2-12.8,4-19.2c-4.2-6.4-12.8-8.2-19.2-4l-65.8,43.2c-2.1,1.4-5,0.8-6.4-1.3c-1.4-2.1-0.8-5,1.3-6.4l73.5-48.3
			c6.4-4.2,8.2-12.8,4-19.2s-12.8-8.2-19.2-4l-73.5,48.3c-2.1,1.4-5,0.8-6.4-1.3c-1.4-2.1,0.1-3.6,2.2-5l58-38.1
			c6.4-4.2,8.2-12.8,4-19.2s-12.8-8.2-19.2-4c0,0-42.5,28.1-46.9,31s-5.2,5.4-5.7,6.7c-5.8,16.3-11.2,31.6-11.9,33.8
			c-4.2,12.2,0,10.3,6.9,29.4l0,0l0,0l0,0c0.4,1.2,0.8,2.4,1.1,3.7c2.5,9.9,7.9,32.9,7.9,32.9c1.1,4.3-1.3,8.6-5.3,9.5
			s-8.1-1.8-9.1-6.2c0,0-2.8-8.9-3-9.8c-0.3-0.9-1.2-3.2-2.3,0.1c-1.1,3.3-15.2,44.2-15.2,44.2c-1.1,3.2-4.5,4.9-7.7,3.8
			s-4.9-4.5-3.8-7.7l9.9-28.7c0.4-1.1,0.5-2-0.6-2.3c-1.1-0.4-2.2,0.2-2.6,1.3l-12.5,36.4c-1.1,3.2-4.5,4.9-7.7,3.8
			s-4.9-4.5-3.8-7.7l12.5-36.4c0.4-1.1-0.2-2.2-1.3-2.6c-1.1-0.4-2.2,0.2-2.6,1.3l-11.2,32.6c-1.1,3.2-4.6,4.9-7.7,3.8
			c-3.2-1.1-4.9-4.5-3.8-7.7l12.5-36.4c0.4-1.1-0.2-2.2-1.3-2.6c-1.1-0.4-2.2,0.2-2.6,1.3l-8.6,24.9c-1.1,3.2-4.5,4.9-7.7,3.8
			s-4.9-4.5-3.8-7.7c0,0,15.7-45.6,17.8-51.7c0-0.1,0.1-0.2,0.1-0.4c7.2-20.5,18.2-18.6,23.6-32.7l0.6-1.8
			c1.4-4.1,3.8-10.7,6.7-18.5l3.4-9.5c4.1-9.3,0.5-20-7.9-23.9c-8.5-3.9-18.8,0.5-22.9,9.8c0,0-22.5,49-31.8,70.5
			c-1.2,2.7-2.2,5.4-3.1,8.2l0,0l0,0v0.1c-8.1,23.8-17.2,42-31.6,51.5c-4.9,3.2-16,10.4-22.8,14.7c-4.1,2.6-9.4,4.8-4.7,11.9
			s36,54.7,39.1,59.4c4,6.1,8.4,2.9,10.4,1.7c25-15.5,6.3-3.9,25-16.2c31-20.4,47.9,0.2,90.7-27.6c0.3-0.2,0.5-0.3,0.7-0.5
			c12.4-8.2,104.4-68.7,104.4-68.7C490.6,338.7,492.4,330.1,488.2,323.7z"/>
	</g>
</g>
</svg>
