<?xml version="1.0" encoding="utf-8"?>
<!-- Generator: Adobe Illustrator 22.0.1, SVG Export Plug-In . SVG Version: 6.00 Build 0)  -->
<svg version="1.1" id="Objects" xmlns="http://www.w3.org/2000/svg" xmlns:xlink="http://www.w3.org/1999/xlink" x="0px" y="0px"
	 viewBox="0 0 800 800" style="enable-background:new 0 0 800 800;" xml:space="preserve">
<style type="text/css">
	.st0{fill:#193A5E;}
	.st1{fill:#FFFFFF;}
	.a{fill:url(#a);}
</style>
<style>.b{fill:#47abea;}.c{fill:#fff;}</style>
<path class="a" d="M744.1,468.3c-0.2-18.1-7.3-34.6-18.8-46.9c-0.9-1-1.8-1.9-2.8-2.9c-0.5-0.5-0.9-0.9-1.4-1.4c-0.2-0.2-0.5-0.5-0.7-0.7
	c-0.2-0.2-0.4-0.4-0.5-0.5c-0.4-0.4-0.7-0.7-1.1-1.1c-0.2-0.2-0.5-0.5-0.7-0.7c-0.2-0.2-0.4-0.4-0.5-0.5c-0.4-0.4-0.7-0.7-1.1-1.1
	c-0.2-0.2-0.5-0.5-0.7-0.7c-0.2-0.2-0.4-0.4-0.6-0.6c-0.5-0.5-0.9-0.9-1.4-1.4c-0.2-0.2-0.5-0.5-0.7-0.7c-0.2-0.2-0.4-0.4-0.5-0.5
	c-0.4-0.4-0.7-0.7-1.1-1.1c-0.2-0.2-0.5-0.5-0.7-0.7c-0.2-0.2-0.3-0.3-0.5-0.5c-0.4-0.4-0.7-0.8-1.1-1.1c-0.2-0.2-0.5-0.5-0.7-0.7
	c-0.2-0.2-0.4-0.4-0.5-0.5c-0.3-0.3-0.7-0.7-1-1c-0.2-0.2-0.3-0.3-0.5-0.5c-0.3-0.3-0.6-0.6-0.9-0.9c-0.1-0.1-0.2-0.2-0.3-0.3
	c5.5-11.4,8.6-24.1,8.6-37.5c0-19.5-6.5-37.5-17.4-52c-2.6-3.5-5.4-6.8-8.5-9.8c-0.1-0.1-0.3-0.3-0.4-0.4c-0.1-0.1-0.3-0.3-0.4-0.4
	c-0.1-0.1-0.3-0.3-0.4-0.4c-0.2-0.2-0.4-0.4-0.6-0.5c-0.2-0.2-0.4-0.4-0.5-0.6c-0.1-0.1-0.3-0.3-0.4-0.4c-0.1-0.1-0.3-0.3-0.4-0.4
	c-0.1-0.1-0.3-0.3-0.4-0.4c-0.2-0.2-0.4-0.4-0.6-0.6c-0.2-0.2-0.4-0.4-0.5-0.6c-0.1-0.1-0.3-0.3-0.4-0.4c-0.1-0.1-0.3-0.3-0.4-0.4
	c-0.1-0.1-0.3-0.3-0.4-0.4c-0.2-0.2-0.4-0.4-0.6-0.5c-0.2-0.2-0.4-0.4-0.6-0.6c-0.1-0.1-0.3-0.3-0.4-0.4c-0.1-0.1-0.3-0.3-0.4-0.4
	c-0.1-0.1-0.3-0.3-0.4-0.4c-0.1-0.1-0.3-0.3-0.4-0.4c-0.2-0.2-0.4-0.4-0.6-0.6c-0.2-0.2-0.4-0.4-0.5-0.6c-0.1-0.1-0.3-0.3-0.4-0.4
	c-0.1-0.1-0.3-0.3-0.4-0.4c-0.1-0.1-0.3-0.3-0.4-0.4c-0.2-0.2-0.4-0.4-0.6-0.5c-0.2-0.2-0.4-0.4-0.6-0.6c-0.1-0.1-0.3-0.3-0.4-0.4
	c-0.1-0.1-0.3-0.3-0.4-0.4c-0.1-0.1-0.3-0.3-0.4-0.4c-0.2-0.2-0.4-0.4-0.6-0.5c-0.2-0.2-0.4-0.4-0.5-0.6c-0.1-0.1-0.3-0.3-0.4-0.4
	c-0.1-0.1-0.3-0.3-0.4-0.4c-0.1-0.1-0.3-0.3-0.4-0.4c-0.1-0.1-0.3-0.3-0.4-0.4c-0.2-0.2-0.4-0.4-0.6-0.5c-0.2-0.2-0.4-0.4-0.6-0.6
	c-0.1-0.1-0.3-0.3-0.4-0.4c-0.1-0.1-0.3-0.3-0.4-0.4c-0.1-0.1-0.3-0.3-0.4-0.4c-0.2-0.2-0.4-0.4-0.6-0.5c-0.2-0.2-0.4-0.4-0.5-0.6
	c-0.1-0.1-0.3-0.3-0.4-0.4c-0.1-0.1-0.3-0.3-0.4-0.4c-0.1-0.1-0.3-0.3-0.4-0.4c-0.2-0.2-0.4-0.4-0.6-0.5c-0.2-0.2-0.4-0.4-0.5-0.6
	c-0.1-0.1-0.3-0.3-0.4-0.4c-0.1-0.1-0.3-0.3-0.4-0.4c-0.1-0.1-0.3-0.3-0.4-0.4c-0.1-0.1-0.3-0.3-0.4-0.4c-0.2-0.2-0.4-0.4-0.6-0.5
	c-0.2-0.2-0.4-0.4-0.5-0.6c-0.1-0.1-0.3-0.3-0.4-0.4c-0.1-0.1-0.3-0.3-0.4-0.4c-0.1-0.1-0.3-0.3-0.4-0.4c-0.2-0.2-0.4-0.4-0.6-0.5
	c-0.2-0.2-0.4-0.4-0.5-0.6c-0.1-0.1-0.3-0.3-0.4-0.4c-0.1-0.1-0.3-0.3-0.4-0.4c-0.1-0.1-0.3-0.3-0.4-0.4c-0.2-0.2-0.4-0.4-0.6-0.5
	c-0.2-0.2-0.4-0.4-0.5-0.6c-0.1-0.1-0.3-0.3-0.4-0.4c-0.1-0.1-0.3-0.3-0.4-0.4c-0.1-0.1-0.3-0.3-0.4-0.4c-0.2-0.2-0.4-0.4-0.6-0.6
	c-0.2-0.2-0.4-0.4-0.5-0.6c-0.1-0.1-0.3-0.3-0.4-0.4c-0.1-0.1-0.3-0.3-0.4-0.4c-0.1-0.1-0.3-0.3-0.4-0.4c-0.1-0.1-0.3-0.3-0.4-0.4
	c-0.2-0.2-0.4-0.4-0.6-0.5c-0.2-0.2-0.4-0.4-0.5-0.6c-0.1-0.1-0.3-0.3-0.4-0.4c-0.1-0.1-0.3-0.3-0.4-0.4c-0.1-0.1-0.3-0.3-0.4-0.4
	c-0.2-0.2-0.4-0.4-0.6-0.6c-0.2-0.2-0.4-0.4-0.5-0.6c-0.1-0.1-0.3-0.3-0.4-0.4c-0.1-0.1-0.3-0.3-0.4-0.4c-0.1-0.1-0.3-0.3-0.4-0.4
	c-0.2-0.2-0.4-0.4-0.6-0.5c-0.2-0.2-0.4-0.4-0.6-0.6c-0.1-0.1-0.3-0.3-0.4-0.4c-0.1-0.1-0.3-0.3-0.4-0.4c-0.1-0.1-0.3-0.3-0.4-0.4
	c-0.1-0.1-0.3-0.3-0.4-0.4c-0.2-0.2-0.4-0.4-0.6-0.6c-0.2-0.2-0.4-0.4-0.5-0.6c-0.1-0.1-0.3-0.3-0.4-0.4c-0.1-0.1-0.3-0.3-0.4-0.4
	c-0.1-0.1-0.3-0.3-0.4-0.4c-0.2-0.2-0.4-0.4-0.6-0.5c-0.2-0.2-0.4-0.4-0.6-0.6c-0.1-0.1-0.3-0.3-0.4-0.4c-0.1-0.1-0.3-0.3-0.4-0.4
	c-0.1-0.1-0.3-0.3-0.4-0.4c-0.2-0.2-0.4-0.4-0.6-0.5c-0.2-0.2-0.4-0.4-0.5-0.6c-0.1-0.1-0.3-0.3-0.4-0.4c-0.1-0.1-0.3-0.3-0.4-0.4
	c-0.1-0.1-0.3-0.3-0.4-0.4c-0.2-0.2-0.4-0.4-0.6-0.5c-0.2-0.2-0.4-0.4-0.5-0.6c-0.1-0.1-0.3-0.3-0.4-0.4c-0.1-0.1-0.3-0.3-0.4-0.4
	c-0.1-0.1-0.3-0.3-0.4-0.4c-0.1-0.1-0.3-0.3-0.4-0.4c-0.2-0.2-0.4-0.4-0.6-0.5c-0.2-0.2-0.4-0.4-0.5-0.6c-0.1-0.1-0.3-0.3-0.4-0.4
	c-0.1-0.1-0.3-0.3-0.4-0.4c-0.1-0.1-0.3-0.3-0.4-0.4c-0.2-0.2-0.4-0.4-0.6-0.5c-0.2-0.2-0.4-0.4-0.5-0.6c-0.1-0.1-0.3-0.3-0.4-0.4
	c-0.1-0.1-0.3-0.3-0.4-0.4c-0.1-0.1-0.3-0.3-0.4-0.4c-0.2-0.2-0.4-0.4-0.6-0.5c-0.2-0.2-0.4-0.4-0.5-0.6c-0.1-0.1-0.3-0.3-0.4-0.4
	c-0.1-0.1-0.3-0.3-0.4-0.4c-0.1-0.1-0.3-0.3-0.4-0.4c-0.1-0.1-0.3-0.3-0.4-0.4c-0.2-0.2-0.4-0.4-0.6-0.5c-0.2-0.2-0.4-0.4-0.5-0.6
	c-0.1-0.1-0.3-0.3-0.4-0.4c-0.1-0.1-0.3-0.3-0.4-0.4c-0.1-0.1-0.3-0.3-0.4-0.4c-0.2-0.2-0.4-0.4-0.6-0.5c-0.2-0.2-0.4-0.4-0.5-0.6
	c-0.1-0.1-0.3-0.3-0.4-0.4c-0.1-0.1-0.3-0.3-0.4-0.4c-0.1-0.1-0.3-0.3-0.4-0.4c-0.2-0.2-0.4-0.4-0.6-0.6c-0.2-0.2-0.4-0.4-0.5-0.6
	c-0.1-0.1-0.3-0.3-0.4-0.4c-0.1-0.1-0.3-0.3-0.4-0.4c-0.1-0.1-0.3-0.3-0.4-0.4c-0.1-0.1-0.3-0.3-0.4-0.4c-0.2-0.2-0.4-0.4-0.6-0.5
	c-0.2-0.2-0.4-0.4-0.5-0.6c-0.1-0.1-0.3-0.3-0.4-0.4c-0.1-0.1-0.3-0.3-0.4-0.4c-0.1-0.1-0.3-0.3-0.4-0.4c-0.2-0.2-0.4-0.4-0.6-0.6
	c-0.2-0.2-0.4-0.4-0.5-0.6c-0.1-0.1-0.3-0.3-0.4-0.4c-0.1-0.1-0.3-0.3-0.4-0.4c-0.1-0.1-0.3-0.3-0.4-0.4c-0.2-0.2-0.4-0.4-0.6-0.5
	c-0.2-0.2-0.4-0.4-0.6-0.6c-0.1-0.1-0.3-0.3-0.4-0.4c-0.1-0.1-0.3-0.3-0.4-0.4c-0.1-0.1-0.3-0.3-0.4-0.4c-0.2-0.2-0.4-0.4-0.6-0.5
	c-0.2-0.2-0.4-0.4-0.5-0.6c-0.1-0.1-0.3-0.3-0.4-0.4c-0.1-0.1-0.3-0.3-0.4-0.4c-0.1-0.1-0.3-0.3-0.4-0.4c-0.1-0.1-0.3-0.3-0.4-0.4
	c-0.2-0.2-0.4-0.4-0.6-0.5c-0.2-0.2-0.4-0.4-0.6-0.6c-0.1-0.1-0.3-0.3-0.4-0.4c-0.1-0.1-0.3-0.3-0.4-0.4c-0.1-0.1-0.3-0.3-0.4-0.4
	c-0.2-0.2-0.4-0.4-0.6-0.5c-0.2-0.2-0.4-0.4-0.5-0.6c-0.1-0.1-0.3-0.3-0.4-0.4c-0.1-0.1-0.3-0.3-0.4-0.4c-0.1-0.1-0.3-0.3-0.4-0.4
	c-0.2-0.2-0.4-0.4-0.6-0.5c-0.2-0.2-0.4-0.4-0.5-0.6c-0.1-0.1-0.3-0.3-0.4-0.4c-0.1-0.1-0.3-0.3-0.4-0.4c-0.1-0.1-0.3-0.3-0.4-0.4
	c-0.1-0.1-0.3-0.3-0.4-0.4c-0.2-0.2-0.4-0.4-0.6-0.5c-0.2-0.2-0.4-0.4-0.5-0.6c-0.1-0.1-0.3-0.3-0.4-0.4c-0.1-0.1-0.3-0.3-0.4-0.4
	c-0.1-0.1-0.3-0.3-0.4-0.4c-0.2-0.2-0.4-0.4-0.6-0.5c-0.2-0.2-0.4-0.4-0.5-0.6c-0.1-0.1-0.3-0.3-0.4-0.4c-0.1-0.1-0.3-0.3-0.4-0.4
	c-0.1-0.1-0.3-0.3-0.4-0.4c-0.2-0.2-0.4-0.4-0.6-0.5c-0.2-0.2-0.4-0.4-0.5-0.6c-0.1-0.1-0.3-0.3-0.4-0.4c-0.1-0.1-0.3-0.3-0.4-0.4
	c-0.1-0.1-0.3-0.3-0.4-0.4c-0.1-0.1-0.3-0.3-0.4-0.4c-0.1-0.1-0.2-0.2-0.3-0.3c-0.1-0.1-0.2-0.2-0.4-0.3c-0.1-0.1-0.3-0.3-0.4-0.4
	c-0.1-0.1-0.3-0.3-0.4-0.4c-0.1-0.1-0.3-0.3-0.4-0.4c-0.1-0.1-0.3-0.3-0.4-0.4c-0.2-0.2-0.4-0.4-0.6-0.5c-0.2-0.2-0.4-0.4-0.5-0.6
	c-0.1-0.1-0.3-0.3-0.4-0.4c-0.1-0.1-0.3-0.3-0.4-0.4c-0.1-0.1-0.3-0.3-0.4-0.4c-0.2-0.2-0.4-0.4-0.6-0.6c-0.2-0.2-0.4-0.4-0.5-0.6
	c-0.1-0.1-0.3-0.3-0.4-0.4c-0.1-0.1-0.3-0.3-0.4-0.4c-0.1-0.1-0.3-0.3-0.4-0.4c-0.2-0.2-0.4-0.4-0.6-0.5c-0.2-0.2-0.4-0.4-0.6-0.6
	c-0.1-0.1-0.3-0.3-0.4-0.4c-0.1-0.1-0.3-0.3-0.4-0.4c-0.1-0.1-0.3-0.3-0.4-0.4c-0.1-0.1-0.3-0.3-0.4-0.4c-0.2-0.2-0.4-0.4-0.6-0.6
	c-0.2-0.2-0.4-0.4-0.5-0.6c-0.1-0.1-0.3-0.3-0.4-0.4c-0.1-0.1-0.3-0.3-0.4-0.4c-0.1-0.1-0.3-0.3-0.4-0.4c-0.2-0.2-0.4-0.4-0.6-0.5
	c-0.2-0.2-0.4-0.4-0.6-0.6c-0.1-0.1-0.3-0.3-0.4-0.4c-0.1-0.1-0.3-0.3-0.4-0.4c-0.1-0.1-0.3-0.3-0.4-0.4c-0.2-0.2-0.4-0.4-0.6-0.5
	c-0.2-0.2-0.4-0.4-0.5-0.6c-0.1-0.1-0.3-0.3-0.4-0.4c-0.1-0.1-0.3-0.3-0.4-0.4c-0.1-0.1-0.3-0.3-0.4-0.4c-0.1-0.1-0.3-0.3-0.4-0.4
	c-0.2-0.2-0.4-0.4-0.6-0.5c-0.2-0.2-0.4-0.4-0.6-0.6c-0.1-0.1-0.3-0.3-0.4-0.4c-0.1-0.1-0.3-0.3-0.4-0.4c-0.1-0.1-0.3-0.3-0.4-0.4
	c-0.2-0.2-0.4-0.4-0.6-0.5c-0.2-0.2-0.4-0.4-0.5-0.6c-0.1-0.1-0.3-0.3-0.4-0.4c-0.1-0.1-0.3-0.3-0.4-0.4c-0.1-0.1-0.3-0.3-0.4-0.4
	c-0.2-0.2-0.4-0.4-0.6-0.5c-0.2-0.2-0.4-0.4-0.5-0.6c-0.1-0.1-0.3-0.3-0.4-0.4c-0.1-0.1-0.3-0.3-0.4-0.4c-0.1-0.1-0.3-0.3-0.4-0.4
	c-0.1-0.1-0.3-0.3-0.4-0.4c-0.1-0.1-0.2-0.2-0.3-0.4c-0.1-0.1-0.2-0.2-0.4-0.3c-0.1-0.1-0.3-0.3-0.4-0.4c-0.1-0.1-0.3-0.3-0.4-0.4
	c-0.1-0.1-0.3-0.3-0.4-0.4c-0.1-0.1-0.3-0.3-0.4-0.4c-15.7-15.8-37.4-25.6-61.4-25.6c-15,0-29.2,3.8-41.5,10.6
	c-0.1-0.1-0.3-0.3-0.4-0.4c-0.2-0.2-0.4-0.4-0.6-0.6c-0.1-0.1-0.3-0.3-0.4-0.4c-0.1-0.1-0.3-0.3-0.4-0.4c-0.1-0.1-0.3-0.3-0.4-0.4
	c-0.2-0.2-0.3-0.3-0.5-0.5c-0.2-0.2-0.4-0.4-0.6-0.6c-0.1-0.1-0.3-0.3-0.4-0.4c-0.1-0.1-0.3-0.3-0.4-0.4c-0.1-0.1-0.3-0.3-0.4-0.4
	c-0.1-0.1-0.3-0.3-0.4-0.4c-0.2-0.2-0.3-0.3-0.5-0.5c-0.2-0.2-0.4-0.4-0.6-0.6c-0.1-0.1-0.3-0.3-0.4-0.4c-0.1-0.1-0.3-0.3-0.4-0.4
	c-0.1-0.1-0.3-0.3-0.4-0.4c-0.2-0.2-0.3-0.3-0.5-0.5c-0.2-0.2-0.4-0.4-0.6-0.6c-0.1-0.1-0.3-0.3-0.4-0.4c-0.1-0.1-0.3-0.3-0.4-0.4
	c-0.1-0.1-0.3-0.3-0.4-0.4c-0.2-0.2-0.3-0.3-0.5-0.5c-0.2-0.2-0.4-0.4-0.6-0.6c-0.1-0.1-0.3-0.3-0.4-0.4c-0.1-0.1-0.3-0.3-0.4-0.4
	c-0.1-0.1-0.3-0.3-0.4-0.4c-0.1-0.1-0.3-0.3-0.4-0.4c-0.1-0.1-0.2-0.3-0.4-0.4c-0.1-0.1-0.2-0.2-0.3-0.3c-0.1-0.1-0.3-0.3-0.4-0.4
	c-0.1-0.1-0.3-0.3-0.4-0.4c-0.1-0.1-0.3-0.3-0.4-0.4c-0.1-0.1-0.3-0.3-0.4-0.4c-12.4-12.4-29.5-20-48.4-20
	c-26.1,0-48.9,14.6-60.5,36.1c-14.7-11.4-33-18.2-53-18.2c-37.1,0-68.7,23.3-81,56c-5.6-1.5-11.5-2.3-17.5-2.3
	c-37.9,0-68.7,30.8-68.7,68.7c0,6.7,1,13.1,2.8,19.2c-41.4,7.2-72.9,43.3-72.9,86.8c0,18.4,5.6,35.4,15.2,49.5
	c3.9,5.9,8.5,11.4,13.7,16.2c1.6,1.7,3.3,3.4,5,5c1.9,2.1,3.9,4,6,5.9c0.4,0.4,0.8,0.8,1.2,1.2c0.8,0.8,1.7,1.7,2.5,2.5
	c0.8,0.9,1.6,1.7,2.5,2.5c0.8,0.8,1.5,1.5,2.3,2.3c1.2,1.2,2.4,2.4,3.6,3.5c0,0,0.1,0.1,0.1,0.1c0,0,0.1,0.1,0.1,0.1
	c1.1,1.2,2.3,2.4,3.5,3.6c0.8,0.8,1.5,1.5,2.3,2.3c0.8,0.8,1.6,1.7,2.5,2.5c0.8,0.9,1.7,1.7,2.5,2.5c0.8,0.8,1.5,1.5,2.3,2.3
	c0.8,0.8,1.7,1.7,2.5,2.5c0.8,0.9,1.6,1.7,2.5,2.5c0.8,0.8,1.5,1.5,2.3,2.3c0.8,0.8,1.5,1.5,2.3,2.3c0.8,0.8,1.7,1.7,2.5,2.5
	c0.8,0.9,1.6,1.7,2.5,2.5c0.8,0.8,1.5,1.5,2.3,2.3c0.8,0.8,1.7,1.7,2.5,2.5c0.8,0.9,1.6,1.7,2.5,2.5c0.8,0.8,1.5,1.5,2.3,2.3
	c0.8,0.8,1.6,1.7,2.5,2.5c0.8,0.9,1.7,1.7,2.5,2.5c0.8,0.8,1.5,1.5,2.3,2.3c0.8,0.8,1.5,1.5,2.3,2.3c0.8,0.8,1.7,1.7,2.5,2.5
	c0.8,0.9,1.6,1.7,2.5,2.5c0.8,0.8,1.5,1.5,2.3,2.3c0.8,0.8,1.7,1.7,2.5,2.5c0.8,0.9,1.6,1.7,2.5,2.5c0.8,0.8,1.5,1.5,2.3,2.3
	c0.8,0.8,1.5,1.5,2.3,2.3c0.8,0.8,1.6,1.7,2.5,2.5c0.8,0.9,1.7,1.7,2.5,2.5c0.8,0.8,1.5,1.5,2.3,2.3c0.8,0.8,1.7,1.7,2.5,2.5
	c0.4,0.4,0.8,0.9,1.3,1.3c1.1,1.2,2.3,2.4,3.5,3.6c0.8,0.8,1.7,1.7,2.5,2.5c0.8,0.9,1.6,1.7,2.5,2.5c0.8,0.8,1.5,1.5,2.3,2.3
	c0.8,0.8,1.5,1.5,2.3,2.3c16,16.6,38.5,27,63.5,27c2,0,3.9-0.1,5.9-0.2c0.3,0.3,0.5,0.5,0.8,0.8c0.8,0.8,1.5,1.5,2.3,2.3
	c0.8,0.9,1.7,1.7,2.6,2.5c0.8,0.8,1.6,1.7,2.4,2.5c0.8,0.8,1.5,1.5,2.3,2.3c0.8,0.9,1.7,1.7,2.6,2.5c0.4,0.4,0.7,0.8,1.1,1.1
	c1.2,1.3,2.4,2.5,3.7,3.7c0.8,0.9,1.7,1.7,2.6,2.5c0.8,0.8,1.6,1.7,2.4,2.5c0.8,0.8,1.5,1.5,2.3,2.3c0.8,0.8,1.5,1.5,2.3,2.3
	c15.8,16.4,37.9,26.5,62.4,26.5c21.2,0,40.7-7.7,55.8-20.4c0.2,0.2,0.4,0.4,0.6,0.6c0.7,0.8,1.5,1.5,2.3,2.3
	c0.8,0.9,1.7,1.7,2.5,2.5c0.5,0.6,1.1,1.1,1.6,1.6c1,1.1,2.1,2.2,3.2,3.2c0.8,0.9,1.7,1.7,2.5,2.5c0.8,0.8,1.6,1.7,2.5,2.5
	c0.7,0.8,1.5,1.5,2.3,2.3c0.7,0.8,1.5,1.5,2.3,2.3c12.5,13.2,30.3,21.4,49.9,21.4c26.8,0,50-15.4,61.3-37.7
	c15,12.4,34.2,19.8,55.2,19.8c47.8,0,86.6-38.8,86.6-86.6c0-7.3-0.9-14.4-2.6-21.2C716.7,533.5,744.1,504.1,744.1,468.3z"/>
<g>
	<g>
		<path class="st0" d="M587.5,289.9c6.9-12.4,10.8-26.7,10.8-41.8c0-47.8-38.8-86.6-86.6-86.6c-16.1,0-31.2,4.4-44.1,12.1
			c-11.6-21.4-34.3-36-60.4-36s-48.9,14.6-60.5,36.1c-14.7-11.4-33-18.2-53-18.2c-37.1,0-68.7,23.3-81,56
			c-5.6-1.5-11.5-2.3-17.5-2.3c-37.9,0-68.7,30.8-68.7,68.7c0,6.7,1,13.1,2.8,19.2c-41.4,7.2-72.9,43.3-72.9,86.8
			c0,48.7,39.4,88.1,88.1,88.1c5.1,0,10.1-0.5,14.9-1.3c12.6,32.2,44,55,80.7,55c23.6,0,45.1-9.5,60.7-24.8
			c9.4,26.7,34.9,45.7,64.8,45.7c26.8,0,50-15.4,61.3-37.8c15,12.4,34.2,19.8,55.2,19.8c47.8,0,86.6-38.8,86.6-86.6
			c0-7.3-0.9-14.4-2.6-21.2c35-3.2,62.4-32.6,62.4-68.4C628.2,324.7,611.5,300.7,587.5,289.9z"/>
	</g>
</g>
<g>
	<g>
		<path class="st1" d="M289.3,310.4c19.3,0,34.9-15.6,34.9-35c0-12,4.2-23.1-5.1-29.3c-5.6-3.8-30.1-5.6-37.3-5.6
			c-8.6,0-19.8,7-25.9,12.2c-7.6,6.4-1.6,12-1.6,22.7C254.4,294.8,270,310.4,289.3,310.4z M265,272.1c6.4-1.2,10.8,0.9,10.8,0.9
			l10.7-5.2c0,0-5.5,7.9-0.6,5.2c10.9-3.7,23.1-2.1,29.3-0.9c0.2,1.4,0.4,2.8,0.4,4.2c0,14.4-11.4,26-25.6,26
			c-14.1,0-25.5-11.6-25.5-26C264.6,274.8,264.8,273.5,265,272.1z"/>
		<path class="st1" d="M459.8,270.6c-0.2-2-0.3-4-0.8-5.9c-1.4-12.2-12.3-37.1-43.8-36.4c-27.1,0.6-33,21.1-34.5,33.5
			c-1,3.1-1.6,6.2-1.8,9.6c-35.3,6.2-31.4,41.9-9.8,42.5c-2-18.7,6.9-29.9,10.3-33.5c3.2,19.3,19.8,34.1,40,34.1
			c19.1,0,35.1-13.3,39.4-31.1c3.3,5.8,8.8,17.7,7.5,30.5C500.3,313.6,483.6,274.8,459.8,270.6z M419.5,303
			c-15.9,0-28.8-12.8-29.1-28.6c5.8-2.1,10.1-12.1,10.1-12.1s3.4,1.2,3.4,12.5c6,2.1,16.4-17.6,16.4-17.6v15.5
			c6.6,1.8,27.5-0.6,27.5-0.6l0.8,0.7c0,0.3,0.1,0.7,0.1,1C448.7,289.9,435.6,303,419.5,303z"/>
		<polygon class="st1" points="428,315.5 410.8,315.5 396.5,315.5 354.5,366.1 313.9,316.2 267.7,316.2 219.4,369.2 229.5,379.7 
			264.1,350.2 264.1,407.4 271.1,407.4 271.1,451 266.7,451 266.7,456.1 286.8,456.1 286.8,451 286.8,407.4 294.3,407.4 294.3,451 
			294.3,456.1 314.3,456.1 314.3,451 309.9,451 309.9,407.4 318.4,407.4 318.4,351.2 346,379.7 357.4,376.9 363.6,378.4 395,342.6 
			396.8,356.8 367.6,406.8 401.2,406.8 401.2,450.4 396.8,450.4 396.8,455.4 416.9,455.4 416.9,450.4 416.9,450.4 416.9,406.8 
			424.4,406.8 424.4,450.4 424.4,455.4 444.5,455.4 444.5,450.4 440.1,450.4 440.1,406.8 466.1,406.8 440.5,356.8 441.9,339.3 
			466.4,372.1 482.6,368.1 443.8,315.5 		"/>
	</g>
</g>
</svg>
